<?xml version="1.0" standalone="no"?>
<!DOCTYPE svg PUBLIC "-//W3C//DTD SVG 20010904//EN"
 "http://www.w3.org/TR/2001/REC-SVG-20010904/DTD/svg10.dtd">
<svg version="1.0" xmlns="http://www.w3.org/2000/svg"
 width="1925.000000pt" height="1925.000000pt" viewBox="0 0 1925.000000 1925.000000"
 preserveAspectRatio="xMidYMid meet">
<metadata>
Created by potrace 1.11, written by Peter Selinger 2001-2013
</metadata>
<g transform="translate(0.000000,1925.000000) scale(0.100000,-0.100000)"
fill="#000000" stroke="none">
<path d="M13337 18344 c-1 -1 -55 -5 -119 -8 -65 -4 -125 -9 -135 -10 -10 -2
-43 -7 -73 -10 -30 -4 -66 -8 -80 -11 -14 -2 -52 -9 -85 -14 -72 -12 -76 -13
-185 -41 -88 -22 -196 -57 -265 -85 -296 -123 -681 -367 -1015 -643 -133 -110
-428 -403 -515 -512 -33 -41 -64 -80 -70 -86 -5 -6 -17 -22 -25 -34 -8 -13
-24 -35 -36 -49 -32 -41 -107 -159 -156 -246 -42 -75 -158 -309 -158 -320 0
-2 -11 -28 -24 -57 -116 -256 -252 -650 -351 -1018 -17 -63 -108 -430 -111
-450 -3 -14 -12 -54 -20 -89 -8 -36 -33 -155 -55 -265 -22 -111 -42 -208 -44
-217 -2 -9 -6 -34 -9 -55 -11 -69 -19 -113 -30 -162 -2 -11 -7 -43 -11 -73 -4
-30 -8 -56 -10 -59 -2 -3 -6 -24 -9 -46 -4 -22 -9 -51 -11 -64 -3 -14 -8 -45
-11 -70 -3 -25 -7 -52 -9 -60 -6 -20 -11 -53 -30 -180 -17 -115 -23 -152 -30
-190 -2 -14 -7 -45 -10 -70 -3 -25 -8 -56 -10 -70 -8 -43 -14 -81 -30 -205 -9
-66 -18 -131 -20 -145 -2 -14 -6 -45 -10 -70 -3 -25 -8 -56 -10 -70 -2 -14 -7
-45 -10 -70 -3 -25 -7 -61 -10 -80 -3 -19 -7 -54 -10 -77 -3 -24 -8 -62 -11
-85 -3 -24 -8 -56 -10 -73 -2 -16 -6 -46 -8 -65 -7 -47 -13 -92 -31 -245 -9
-71 -18 -148 -21 -170 -2 -22 -7 -56 -9 -75 -8 -69 -17 -145 -20 -160 -1 -8
-6 -46 -10 -85 -4 -38 -8 -81 -10 -95 -6 -50 -32 -276 -40 -347 -3 -24 -7 -62
-10 -85 -4 -39 -19 -170 -30 -258 -2 -19 -7 -64 -10 -100 -4 -36 -8 -76 -10
-90 -2 -14 -6 -56 -10 -95 -7 -80 -13 -135 -20 -185 -2 -19 -7 -68 -10 -108
-4 -41 -8 -81 -10 -90 -1 -10 -6 -55 -10 -101 -4 -47 -8 -92 -10 -100 -1 -9
-6 -54 -10 -101 -3 -47 -9 -98 -11 -114 -3 -16 -7 -57 -9 -90 -3 -34 -7 -81
-10 -106 -5 -43 -7 -68 -20 -210 -3 -36 -8 -81 -10 -100 -2 -19 -7 -75 -11
-125 -3 -49 -7 -97 -9 -105 -2 -8 -6 -58 -10 -110 -3 -52 -8 -106 -10 -120 -2
-14 -7 -63 -10 -110 -3 -47 -7 -105 -10 -130 -4 -42 -7 -74 -20 -250 -3 -36
-7 -94 -10 -130 -3 -36 -8 -92 -10 -125 -12 -160 -17 -212 -20 -235 -2 -14 -7
-61 -10 -105 -4 -44 -8 -91 -10 -105 -2 -14 -7 -54 -10 -90 -7 -73 -12 -119
-19 -170 -3 -19 -7 -55 -10 -80 -22 -193 -39 -331 -51 -410 -2 -14 -7 -50 -10
-80 -4 -30 -9 -62 -10 -70 -2 -8 -6 -44 -10 -80 -4 -36 -9 -74 -11 -85 -5 -22
-9 -54 -19 -130 -7 -56 -14 -107 -20 -145 -13 -80 -24 -161 -30 -205 -3 -27
-10 -79 -16 -115 -5 -36 -12 -76 -14 -90 -8 -57 -27 -177 -31 -200 -2 -14 -6
-43 -9 -65 -3 -22 -7 -51 -10 -65 -3 -14 -7 -41 -10 -60 -3 -19 -7 -46 -10
-60 -3 -14 -7 -47 -10 -75 -3 -27 -8 -57 -10 -65 -4 -15 -32 -186 -40 -245 -3
-25 -34 -222 -50 -315 -28 -168 -45 -270 -48 -295 -3 -16 -10 -57 -16 -90 -6
-33 -13 -76 -16 -95 -3 -19 -10 -60 -15 -90 -5 -30 -12 -73 -15 -95 -2 -22 -7
-51 -9 -65 -3 -14 -14 -81 -26 -150 -11 -69 -28 -152 -36 -185 -9 -33 -17 -67
-19 -75 -18 -92 -92 -322 -152 -475 -125 -316 -277 -581 -469 -815 -44 -53
-193 -200 -249 -245 -28 -22 -52 -42 -55 -45 -24 -26 -205 -148 -315 -212 -54
-32 -242 -130 -255 -133 -3 -1 -23 -9 -45 -19 -63 -29 -295 -116 -308 -116 -6
0 3 12 19 28 62 57 112 173 130 307 11 84 13 113 13 195 0 118 0 117 -16 190
-59 263 -288 508 -617 660 -207 96 -410 118 -621 67 -60 -15 -119 -31 -130
-37 -11 -5 -53 -23 -92 -39 -323 -134 -574 -399 -638 -672 -30 -131 -23 -272
19 -392 94 -267 394 -521 775 -657 166 -59 243 -72 424 -72 151 0 441 10 476
17 9 1 48 6 86 9 62 7 196 26 280 42 151 27 379 103 523 174 391 191 824 503
1152 830 160 159 186 188 333 370 118 146 290 456 402 725 21 50 43 104 51
120 25 56 158 429 170 475 2 8 23 80 47 160 43 139 85 289 92 320 2 8 20 83
40 165 20 83 39 161 41 175 3 14 11 50 19 80 7 30 16 73 21 95 4 22 8 42 9 45
1 3 5 23 10 45 4 22 10 49 12 60 2 11 6 31 9 45 2 14 7 36 10 50 3 14 8 36 10
50 3 14 16 84 29 155 13 72 31 171 40 220 8 50 17 102 20 116 9 49 64 383 71
434 3 28 8 59 10 70 3 11 9 52 15 92 5 39 12 80 14 91 2 10 6 43 10 73 3 30 8
65 10 79 2 14 7 45 10 70 3 25 8 56 10 70 2 14 7 43 9 65 3 22 15 112 26 200
12 88 23 176 26 195 9 76 15 116 19 140 2 14 7 50 10 80 3 30 8 66 10 80 2 14
7 50 10 80 6 55 9 72 19 145 4 22 8 60 11 85 3 25 7 61 10 80 6 48 14 106 20
160 3 25 7 56 10 70 3 14 7 50 10 80 8 84 14 132 19 165 3 17 8 57 11 90 3 33
8 67 10 75 2 8 7 47 11 85 3 39 8 79 10 90 3 11 7 40 9 65 3 25 7 61 10 80 2
19 7 59 11 89 3 30 7 62 9 70 2 9 6 45 9 81 7 64 24 201 31 250 2 14 7 53 10
87 4 35 8 73 10 85 2 13 6 48 9 78 4 30 11 87 16 125 5 39 12 93 15 120 3 28
7 68 10 90 2 22 7 63 10 90 3 28 10 88 16 135 5 47 12 103 14 125 3 22 7 56
10 75 2 19 7 60 11 90 3 30 8 66 9 80 2 14 7 59 10 100 4 41 9 83 11 93 2 10
6 48 10 85 3 36 7 73 9 82 2 8 6 44 10 80 3 36 8 76 10 90 2 14 7 59 10 100 4
41 9 82 10 91 2 9 6 52 10 95 4 43 9 86 10 94 3 15 12 101 20 190 4 47 14 159
20 220 2 19 6 78 10 130 3 52 8 106 10 120 2 14 7 59 10 100 4 41 8 91 10 110
2 19 6 67 10 105 3 39 8 81 10 95 2 14 7 57 11 95 3 39 8 84 10 100 2 17 6 55
9 85 3 30 10 89 15 130 5 41 12 100 15 130 3 30 8 66 10 80 2 14 7 50 10 80 6
59 11 100 20 168 3 23 7 59 10 80 2 20 7 55 10 77 2 22 7 60 10 85 10 82 36
275 40 300 2 14 7 48 10 75 3 28 10 86 16 130 6 44 12 96 15 115 2 19 6 49 9
65 2 17 7 53 11 80 3 28 8 58 10 69 2 10 6 43 10 74 3 30 8 63 9 71 2 9 6 41
10 71 4 30 9 66 11 80 2 14 7 43 10 65 8 65 34 249 39 276 2 13 6 47 9 74 4
28 8 61 11 75 5 27 6 35 36 245 11 77 22 152 24 166 3 14 7 42 9 63 44 344
109 620 211 900 200 551 485 964 855 1236 236 175 487 308 773 411 59 21 110
39 113 39 2 0 -11 -16 -31 -35 -88 -88 -134 -251 -140 -492 -2 -101 1 -137 20
-205 67 -249 254 -464 536 -612 57 -30 139 -66 181 -80 74 -24 91 -29 168 -44
19 -4 87 -7 150 -6 213 1 448 85 668 237 84 58 215 184 261 251 173 251 196
538 64 779 -107 193 -294 355 -558 483 -151 73 -275 113 -415 135 -50 8 -464
10 -473 3z"/>
</g>
</svg>
